# xmcd
#
# Track frame offsets:
#	150
#	14617
#	27187
#	37935
#	52737
#	64742
#	76005
#	88855
#	100492
#	109585
#	119067
#	126065
#	138397
#	151315
#	164585
#	185325
#	211272
#	242237
#	259617
#	280042
#
# Disc length: 3971
#
# Revision: 2
# Processed by: cddbd v1.5.1PL0 Copyright (c) Steve Scherf et al.
# Submitted via: CDex 1.51
# Normalized: r1:DSETVAR1
#
DISCID=0d0f8114
DTITLE=Various Artist - Soul Source SUPREME "MORNING"
DYEAR=2004
DGENRE=Jazz
TTITLE0=Flying Easy - Woody Herman
TTITLE1=Soul Sauce - Shirley Scott
TTITLE2=Winchester Cathedral - Hank Jones and Oliver Nelson
TTITLE3=Mustang - Curtis Amy
TTITLE4=Tamba - Tamba Trio
TTITLE5=Pau De Arara - Quinteto Violado
TTITLE6=O Mundo Encantado De Monterio Lobato - Jair Rodrigues
TTITLE7=Take It Easy My Brother Charles - Jorge Ben
TTITLE8=Batucada - Marcos Valle
TTITLE9=Till Gammeldansens Vanner - Lill Lindfors
TTITLE10=Maria Joana - Nara Leao
TTITLE11=Ladeira Da Preguica - Elis Regina
TTITLE12=Eu Corro Pra Ver - Claodette Soares
TTITLE13=Iemanja - Sergio Mendes and Brasil '77
TTITLE14=Sinner Man -Felix Da Housecat's Heavenly House Mix - Nina Simone
TTITLE15=What You Want ? - Soul Source Production
TTITLE16=I Love You - akiko
TTITLE17=Hit Or Miss - Odetta
TTITLE18=Tales Of Brave Ulysses - Rotary Connection
TTITLE19=Everybody Loves The Sunshine - Roy Ayers Ubiquity
EXTD=YEAR: 2004
EXTT0=
EXTT1=
EXTT2=
EXTT3=
EXTT4=
EXTT5=
EXTT6=
EXTT7=
EXTT8=
EXTT9=
EXTT10=
EXTT11=
EXTT12=
EXTT13=
EXTT14=
EXTT15=
EXTT16=
EXTT17=
EXTT18=
EXTT19=
PLAYORDER=
